# AST/ASF file generated using VICON BodyLanguage
# -----------------------------------------------
:version 1.10
:name VICON
:units
  mass 1.0
  length 0.45
  angle deg
:documentation
   .ast/.asf automatically generated from VICON data using
   VICON BodyBuilder and BodyLanguage model FoxedUp or BRILLIANT.MOD
:root
   order TX TY TZ RX RY RZ
   axis XYZ
   position 0 0 0  
   orientation 0 0 0 
:bonedata
  begin
     id 1 
     name lhipjoint
     direction 0.643822 -0.745931 0.170529 
     length 2.62041 
     axis 0 0 0  XYZ
  end
  begin
     id 2 
     name lfemur
     direction 0.34202 -0.939693 0  
     length 7.92179  
     axis 0 0 20  XYZ
    dof rx ry rz
    limits (-160.0 20.0)
           (-70.0 70.0)
           (-60.0 70.0)
  end
  begin
     id 3 
     name ltibia
     direction 0.34202 -0.939693 0   
     length 8.16326   
     axis 0 0 20   XYZ
    dof rx
    limits (-10.0 170.0)
  end
  begin
     id 4 
     name lfoot
     direction 0.0837341 -0.230058 0.969568   
     length 1.94455   
     axis -90 7.62852e-016 20   XYZ
    dof rx rz
    limits (-45.0 90.0)
           (-70.0 20.0)
  end
  begin
     id 5 
     name ltoes
     direction 1.5356e-011 -4.21695e-011 1   
     length 0.978804   
     axis -90 7.62852e-016 20   XYZ
    dof rx
    limits (-90.0 20.0)
  end
  begin
     id 6 
     name rhipjoint
     direction -0.656883 -0.73503 0.168037   
     length 2.65927  
     axis 0 0 0  XYZ 
  end
  begin
     id 7 
     name rfemur
     direction -0.34202 -0.939693 0   
     length 7.58746   
     axis 0 0 -20   XYZ
    dof rx ry rz
    limits (-160.0 20.0)
           (-70.0 70.0)
           (-70.0 60.0)
  end
  begin
     id 8 
     name rtibia
     direction -0.342117 -0.939657 0   
     length 8.27303   
     axis 0 0 -20   XYZ
    dof rx
    limits (-10.0 170.0)
 end
 begin
     id 9 
     name rfoot
     direction -0.0685862 -0.188439 0.979687   
     length 2.13088  
     axis -90 -7.62852e-016 -20   XYZ
    dof rx rz
    limits (-45.0 90.0)
           (-20.0 70.0)
  end
  begin
     id 10 
     name rtoes
     direction -1.53538e-011 -4.21514e-011 1   
     length 1.07326   
     axis -90 -7.62852e-016 -20   XYZ
    dof rx
    limits (-90.0 20.0)
  end
  begin
     id 11 
     name lowerback
     direction -0.0358974 0.997216 0.065354   
     length 1.87174   
     axis 0 0 0   XYZ
    dof rx ry rz
    limits (-20.0 45.0)
           (-30.0 30.0)
           (-30.0 30.0)
  end
  begin
     id 12 
     name upperback
     direction 0.0202028 0.998565 0.0495864   
     length 1.8684   
     axis 0 0 0   XYZ
    dof rx ry rz
    limits (-20.0 45.0)
           (-30.0 30.0)
           (-30.0 30.0)
  end
  begin
     id 13 
     name thorax
     direction 0.0366367 0.999163 0.0182199   
     length 1.87747   
     axis 0 0 0   XYZ
    dof rx ry rz
    limits (-20.0 45.0)
           (-30.0 30.0)
           (-30.0 30.0)
  end
  begin
     id 14 
     name lowerneck
     direction 0.0284381 0.999578 -0.00598196   
     length 1.84583   
     axis 0 0 0   XYZ
    dof rx ry rz
    limits (-20.0 45.0)
           (-30.0 30.0)
           (-30.0 30.0)
  end
  begin
     id 15 
     name upperneck
     direction -0.0888142 0.993333 -0.0734973   
     length 1.84467   
     axis 0 0 0   XYZ
    dof rx ry rz
    limits (-20.0 45.0)
           (-30.0 30.0)
           (-30.0 30.0)
  end
  begin
     id 16
     name head
     direction -0.0296474 0.999102 -0.0302696  
     length 1.86566  
     axis 0 0 0   XYZ
    dof rx ry rz
    limits (-20.0 45.0)
           (-30.0 30.0)
           (-30.0 30.0)
  end
  begin
     id 17 
     name lclavicle
     direction 0.933925 0.35714 -0.0153523  
     length 3.93442  
     axis 0 0 0   XYZ
    dof ry rz
    limits (-20.0 10.0)
           (0.0 20.0)
  end
  begin
     id 18 
     name lhumerus
     direction 1 -4.48967e-011 2.12044e-027   
     length 5.78174   
     axis 180 -30 -90   XYZ
    dof rx ry rz
    limits (-60.0 90.0)
           (-90.0 90.0)
           (-90.0 90.0)
  end
  begin
     id 19
     name lradius
     direction 1 -4.48972e-011 6.45701e-027   
     length 3.53992   
     axis 180 -30 -90   XYZ
    dof rx
    limits (-10.0 170.0)
  end
  begin
     id 20
     name lwrist
     direction 1 -4.48981e-011 1.70244e-026   
     length 1.76996   
     axis -1.1226e-014 90 90   XYZ
    dof ry
    limits (-180.0 0.0)
 end
  begin
     id 21 
     name lhand
     direction 1 -4.4879e-011 3.40615e-026   
     length 0.550243   
     axis -2.17265e-014 90 90   XYZ
    dof rx rz
    limits (-90.0 90.0)
           (-45.0 45.0)
  end
  begin
     id 22 
     name lfingers
     direction 1 -4.49029e-011 6.80911e-026   
     length 0.44362   
     axis -4.34526e-014 90 90   XYZ
    dof rx
    limits (0.0 90.0)
  end
  begin
     id 23
     name lthumb
     direction 0.707107 -6.34923e-011 0.707107   
     length 0.636952   
     axis -90 45 -1.62303e-014   XYZ
    dof rx rz
    limits (-45.0 45.0)
           (-45.0 45.0)
  end
  begin
     id 24 
     name rclavicle
     direction -0.950832 0.305106 0.0531883   
     length 3.96125  
     axis 0 0 0   XYZ 
    dof ry rz
    limits (-10.0 20.0)
           (-20.0 0.0)
  end
  begin
     id 25 
     name rhumerus
     direction -1 -4.48961e-011 -6.07392e-030  
     length 5.79352   
     axis 180 30 90   XYZ
    dof rx ry rz
    limits (-90.0 60.0)
           (-90.0 90.0)
           (-90.0 90.0)
  end
  begin
     id 26 
     name rradius
     direction -1 -4.48964e-011 5.97548e-027   
     length 3.37081   
     axis 180 30 90   XYZ
    dof rx
    limits (-10.0 170.0)
  end
  begin
     id 27 
     name rwrist
     direction -1 -4.49021e-011 1.7023e-026   
     length 1.68541   
     axis -1.1226e-014 -90 -90   XYZ
    dof ry
    limits (-180.0 0.0)
  end
  begin
     id 28
     name rhand
     direction -1 -4.48867e-011 3.40563e-026   
     length 0.679827   
     axis -2.17265e-014 -90 -90   XYZ
    dof rx rz
    limits (-90.0 90.0)
           (-45.0 45.0)
  end
  begin
     id 29
     name rfingers
     direction -1 -4.49024e-011 6.80917e-026   
     length 0.548094   
     axis -4.34526e-014 -90 -90   XYZ
    dof rx
    limits (0.0 90.0)
  end
  begin
     id 30
     name rthumb
     direction -0.707107 -6.3488e-011 0.707107   
     length 0.786956   
     axis -90 -45 1.62303e-014   XYZ
    dof rx rz
    limits (-45.0 45.0)
           (-45.0 45.0)
  end
:hierarchy
  begin
    root lhipjoint rhipjoint lowerback
    lhipjoint lfemur
    lfemur ltibia
    ltibia lfoot
    lfoot ltoes
    rhipjoint rfemur
    rfemur rtibia
    rtibia rfoot
    rfoot rtoes
    lowerback upperback
    upperback thorax
    thorax lowerneck lclavicle rclavicle
    lowerneck upperneck
    upperneck head
    lclavicle lhumerus
    lhumerus lradius
    lradius lwrist
    lwrist lhand lthumb
    lhand lfingers
    rclavicle rhumerus
    rhumerus rradius
    rradius rwrist
    rwrist rhand rthumb
    rhand rfingers
  end

#!OML:ASF H:\Terrain\Patient Classification 1\PaulMetrics\Match1Take2\PaulMetrics.ASF
:FULLY-SPECIFIED
:DEGREES
270
root 6.15351 17.8317 -29.7647 11.3985 -67.9289 7.20288
lowerback -9.31852 1.75113 -5.84566
upperback -6.79402 2.52717 -1.16788
thorax -2.07612 1.3647 2.24446
lowerneck 1.51753 14.6905 10.9538
upperneck 5.86041 20.5063 -13.1792
head 4.00108 10.1277 -4.6601
rclavicle -2.03191e-014 -1.50082e-014
rhumerus -53.5864 17.4731 -92.1265
rradius 59.2083
rwrist -12.2123
rhand -14.4648 -33.9889
rfingers 7.12502
rthumb 11.6809 -63.6433
lclavicle -2.03191e-014 -1.50082e-014
lhumerus -56.9372 -2.67284 77.6201
lradius 30.1032
lwrist -1.72374
lhand -13.0514 -6.89743
lfingers 7.12502
lthumb 13.0437 22.6747
rfemur -4.0771 -5.39294 16.4527
rtibia 29.5144
rfoot -8.23156 -25.3687
rtoes 4.47585
lfemur -40.8444 9.15871 -32.3031
ltibia 30.0123
lfoot -11.4396 10.3728
ltoes -20.4052
271
root 6.056 17.8393 -29.6746 11.1334 -67.3383 7.0915
lowerback -8.66321 1.68674 -5.75915
upperback -6.8485 2.39101 -1.24166
thorax -2.47349 1.30451 2.08634
lowerneck 1.42958 14.6514 11.2573
upperneck 6.15001 20.4651 -13.0449
head 4.11408 10.1078 -4.64722
rclavicle -2.25027e-014 -1.35174e-014
rhumerus -54.22 17.4336 -92.5004
rradius 59.6275
rwrist -12.7474
rhand -14.3924 -33.9082
rfingers 7.12502
rthumb 11.7507 -63.5586
lclavicle -2.25027e-014 -1.35174e-014
lhumerus -56.9775 -3.0862 77.7933
lradius 30.2945
lwrist -1.75406
lhand -11.5244 -7.07899
lfingers 7.12502
lthumb 14.5153 22.3932
rfemur -4.7608 -5.8629 16.202
rtibia 31.9732
rfoot -5.65073 -25.2237
rtoes 3.32262
lfemur -39.9866 9.16075 -32.3776
ltibia 30.0719
lfoot -11.6452 10.0484
ltoes -20.5981
272
root 5.97195 17.8427 -29.5941 11.655 -66.7055 6.41572
lowerback -7.92967 1.52838 -5.61705
upperback -7.11147 2.11049 -1.1087
thorax -3.13166 1.18177 2.10013
lowerneck 1.42527 14.6233 11.3904
upperneck 6.52733 20.4558 -12.9636
head 4.2326 10.0995 -4.62918
rclavicle -1.30895e-014 -1.37161e-014
rhumerus -54.5139 17.3926 -92.7601
rradius 59.2169
rwrist -13.0268
rhand -13.8379 -32.623
rfingers 7.12502
rthumb 12.2854 -62.2421
lclavicle -1.30895e-014 -1.37161e-014
lhumerus -57.2591 -3.10537 77.9126
lradius 30.6482
lwrist -1.68137
lhand -10.3904 -7.1409
lfingers 7.12502
lthumb 15.6077 22.2494
rfemur -5.92428 -6.07844 16.3441
rtibia 34.5464
rfoot -4.14152 -24.9819
rtoes 6.24953
lfemur -39.5339 9.12716 -32.2307
ltibia 30.0632
lfoot -11.9811 9.31874
ltoes -21.1247
273
root 5.89232 17.8479 -29.5191 11.4406 -66.2929 6.68119
lowerback -7.45262 1.36797 -5.89872
upperback -7.30383 1.86956 -0.954106
thorax -3.60033 1.09139 2.38917
lowerneck 1.68792 14.6254 11.0528
upperneck 6.39433 20.4596 -12.9092
head 4.11003 10.1083 -4.59715
rclavicle 6.98247e-014 4.77083e-015
rhumerus -54.5678 17.4178 -92.5679
rradius 58.7506
rwrist -12.5631
rhand -11.3045 -30.2173
rfingers 7.12502
rthumb 14.7272 -59.6742
lclavicle 6.98247e-014 4.77083e-015
lhumerus -57.4317 -3.12304 78.4583
lradius 31.1438
lwrist -0.982
lhand -9.25743 -6.46559
lfingers 7.12502
lthumb 16.6986 22.8362
rfemur -7.37842 -6.23698 16.0962
rtibia 37.1669
rfoot -2.5664 -24.4848
rtoes 8.5169
lfemur -39.1888 9.05063 -32.4646
ltibia 29.992
lfoot -12.5032 8.5808
ltoes -21.2643
274
root 5.80476 17.8533 -29.4356 10.2509 -65.9499 8.00759
lowerback -7.34974 1.26701 -6.56818
upperback -7.32503 1.7549 -0.951959
thorax -3.7028 1.06683 2.75678
lowerneck 1.76854 14.5985 10.7638
upperneck 6.39167 20.4262 -12.9011
head 4.06192 10.0886 -4.56905
rclavicle 4.83668e-014 -4.62174e-015
rhumerus -54.699 17.4625 -92.3932
rradius 58.7373
rwrist -12.5175
rhand -13.4531 -32.5444
rfingers 7.12502
rthumb 12.6564 -62.1409
lclavicle 4.83668e-014 -4.62174e-015
lhumerus -57.3785 -3.1615 78.9792
lradius 31.5723
lwrist -1.10889
lhand -9.27199 -5.77094
lfingers 7.12502
lthumb 16.6846 23.532
rfemur -8.77828 -6.78813 15.2748
rtibia 39.7737
rfoot -0.154821 -23.2816
rtoes 6.31517
lfemur -38.6574 8.90955 -33.1738
ltibia 29.8296
lfoot -12.8427 8.34395
ltoes -20.8356
275
root 5.71546 17.8599 -29.353 9.69911 -65.521 8.54886
lowerback -7.41929 1.19709 -6.77595
upperback -7.11916 1.69058 -1.06989
thorax -3.44449 1.0313 2.75342
lowerneck 1.42757 14.5636 10.9171
upperneck 6.53996 20.3735 -12.941
head 4.17553 10.0486 -4.57218
rclavicle 2.48403e-014 6.85807e-015
rhumerus -54.4787 17.3472 -92.4505
rradius 58.5945
rwrist -12.4994
rhand -14.3992 -33.456
rfingers 7.12502
rthumb 11.7442 -63.1068
lclavicle 2.48403e-014 6.85807e-015
lhumerus -57.0234 -3.669 79.3811
lradius 32.1359
lwrist -1.32131
lhand -9.27891 -5.79881
lfingers 7.12502
lthumb 16.6779 23.5047
rfemur -10.0492 -7.20193 14.8274
rtibia 42.2759
rfoot 1.12665 -22.026
rtoes 3.07093
lfemur -37.9658 8.74861 -33.4813
ltibia 29.5259
lfoot -12.9941 8.02146
ltoes -20.6933
